<svg xmlns="http://www.w3.org/2000/svg"
  xmlns:xlink="http://www.w3.org/1999/xlink" version="1.1" width="1080" height="1080" viewBox="0 0 1080 1080" xml:space="preserve">
  <defs>
  </defs>
  <rect x="0" y="0" width="100%" height="100%" fill="#ffffff"/>
  <g transform="matrix(14.011 0 0 14.011 547.9989 547.999)" id="127606">
    <path style="stroke: rgb(0,0,0); stroke-width: 17; stroke-dasharray: none; stroke-linecap: butt; stroke-dashoffset: 0; stroke-linejoin: miter; stroke-miterlimit: 4; is-custom-font: none; font-file-url: none; fill: rgb(255,255,255); fill-rule: nonzero; opacity: 1;" vector-effect="non-scaling-stroke" transform=" translate(-35.0373, -35.0371)" d="M 69.888 45.851 c -1.876 7.473 -5.092 14.373 -11.442 16.723 c -16.556 6.124 -34.405 -5.657 -46.9 1.66 L 0 52.691 c 6.189 -2.618 14.078 -12.698 23.242 -13.876 c 4.762 -0.613 10.763 2.085 16.722 2.64 c 5.242 0.488 14.111 -2.295 14.964 3.521 c 0.734 5.032 -8.147 4.761 -14.083 5.278 c 4.645 0.929 9.655 5.27 13.479 4.211 c 4.932 -1.359 7.491 -8.641 10.924 -10.753 C 69.135 41.318 70.638 42.855 69.888 45.851 z M 43.769 31.829 v 7.876 c 0.317 -0.021 0.635 -0.043 0.954 -0.057 c 1.216 -0.082 2.475 -0.164 3.682 -0.164 c 0.255 0 0.588 0.004 0.967 0.018 c 0.185 -0.598 0.311 -1.231 0.311 -1.932 c 0 -1.827 -0.676 -3.212 -2.015 -4.163 C 46.895 32.854 45.594 32.324 43.769 31.829 z M 36.35 22.22 c 0 1.443 0.479 2.579 1.443 3.391 c 0.967 0.82 2.267 1.391 3.896 1.708 V 17.029 c -1.925 0.075 -3.298 0.653 -4.112 1.752 C 36.754 19.876 36.35 21.023 36.35 22.22 z M 48.295 51.392 c 2.153 1.017 4.186 1.793 5.57 1.409 c 2.331 -0.641 4.188 -3.198 5.985 -5.675 c 1.441 -1.979 2.797 -3.847 4.496 -4.891 c 0.36 -0.224 0.709 -0.416 1.054 -0.584 c 1.569 -3.28 2.475 -6.943 2.475 -10.822 c 0 -13.896 -11.269 -25.165 -25.162 -25.165 c -13.901 0 -25.164 11.269 -25.164 25.165 c 0 2.583 0.392 5.078 1.117 7.422 c 1.411 -0.552 2.86 -0.96 4.36 -1.154 c 2.735 -0.347 5.735 0.256 8.891 1.004 c -0.071 -0.634 -0.114 -1.307 -0.114 -2.03 h 3.872 c 0.07 1.209 0.225 2.192 0.438 3.007 c 1.347 0.287 2.688 0.536 4.015 0.657 c 0.488 0.048 1.024 0.052 1.57 0.05 v -8.482 c -3.167 -0.602 -5.507 -1.602 -7.018 -2.998 c -1.509 -1.404 -2.264 -3.343 -2.264 -5.824 c 0 -2.219 0.811 -4.221 2.438 -5.994 c 1.631 -1.78 3.91 -2.688 6.844 -2.719 v -2.911 h 2.082 v 2.871 c 2.899 0.205 5.13 1.061 6.686 2.565 c 1.556 1.509 2.37 3.5 2.441 5.978 h -3.832 c -0.101 -1.11 -0.397 -2.068 -0.895 -2.871 c -0.926 -1.475 -2.386 -2.248 -4.4 -2.322 v 10.663 c 3.383 0.946 5.683 1.838 6.892 2.672 c 1.975 1.374 2.958 3.399 2.958 6.085 c 0 1.394 -0.166 2.63 -0.492 3.738 c 1.648 0.681 3.132 1.98 3.501 4.494 c 0.208 1.414 -0.128 2.71 -0.958 3.741 C 54.202 50.273 51.434 51.011 48.295 51.392 z" stroke-linecap="round"/>
  </g>
</svg>
